#!OML:ASF H:\IndianDance\Patient Classification 1\Patient 1\Session 1\dancer.ASF
:FULLY-SPECIFIED
:DEGREES
2702
root -9.5124 15.2211 7.1596 177.188 66.5133 -186.746
lowerback -0.555911 5.41251 -1.18454
upperback -7.16794 7.5678 0.66733
thorax -7.42236 3.96535 0.875963
lowerneck -17.8211 -1.85877 -0.32724
upperneck 28.7473 -0.624501 -3.6366
head 12.4826 -0.479198 -1.35794
rclavicle -8.01102e-014 -1.82882e-014
rhumerus 24.5024 67.9857 -14.4963
rradius 111.328
rwrist -2.15034
rhand -32.0103 33.8629
rfingers 7.12502
rthumb -5.25871 3.94816
lclavicle -8.01102e-014 -1.82882e-014
lhumerus 45.3925 22.8183 -6.55141
lradius 72.9599
lwrist 1.82557
lhand -63.0505 -69.8452
lfingers 7.12502
lthumb -35.0508 -43.301
rfemur -29.9146 -11.9268 22.9207
rtibia 44.1341
rfoot -16.1891 -10.4822
rtoes -6.65048
lfemur -13.0557 3.51885 -20.5252
ltibia 47.7556
lfoot -15.043 15.5023
ltoes 8.78584
2703
root -9.50642 15.2069 7.22661 178.434 64.4157 -185.473
lowerback -0.523619 5.23852 -1.17232
upperback -7.21151 7.34937 0.743344
thorax -7.48915 3.86342 0.95554
lowerneck -17.7988 -2.03629 -0.430093
upperneck 28.5749 -0.927299 -3.42867
head 12.4034 -0.598754 -1.30566
rclavicle -2.33572e-014 -6.36111e-015
rhumerus 22.3429 67.7889 -16.1375
rradius 111.167
rwrist -1.88866
rhand -32.2048 34.432
rfingers 7.12502
rthumb -5.44648 4.52199
lclavicle -2.33572e-014 -6.36111e-015
lhumerus 45.1902 22.4967 -6.60805
lradius 73.365
lwrist 2.61129
lhand -63.194 -68.2235
lfingers 7.12502
lthumb -35.187 -41.7113
rfemur -29.7964 -12.5281 23.4973
rtibia 43.8908
rfoot -16.6982 -11.7879
rtoes -5.03094
lfemur -13.2736 5.09146 -20.3979
ltibia 48.6389
lfoot -16.1343 15.798
ltoes 9.90727
2704
root -9.50288 15.1905 7.29362 179.455 62.4087 -184.412
lowerback -0.448036 5.09195 -1.15378
upperback -7.24533 7.16635 0.816706
thorax -7.57022 3.77769 1.02321
lowerneck -17.7792 -2.21957 -0.534506
upperneck 28.3735 -1.23336 -3.24239
head 12.3146 -0.724182 -1.26171
rclavicle -3.56818e-014 -1.03368e-014
rhumerus 20.162 67.5424 -17.7986
rradius 111.022
rwrist -1.73517
rhand -32.3831 34.8607
rfingers 7.12502
rthumb -5.61866 4.95516
lclavicle -3.56818e-014 -1.03368e-014
lhumerus 44.9414 22.1513 -6.66589
lradius 73.8566
lwrist 3.50308
lhand -63.3255 -66.1418
lfingers 7.12502
lthumb -35.3117 -39.6591
rfemur -29.7657 -13.0234 24.0555
rtibia 43.7531
rfoot -17.143 -12.9688
rtoes -3.29946
lfemur -13.4883 6.62655 -20.2846
ltibia 49.57
lfoot -16.8663 15.3786
ltoes 9.48659
2705
root -9.50213 15.1712 7.36008 180.303 60.5063 -183.51
lowerback -0.338078 4.9752 -1.1188
upperback -7.26232 7.02194 0.890261
thorax -7.6522 3.709 1.07772
lowerneck -17.7575 -2.40536 -0.639909
upperneck 28.1295 -1.5372 -3.08442
head 12.2099 -0.854204 -1.22755
rclavicle 6.59965e-014 2.10712e-014
rhumerus 17.9881 67.2292 -19.4618
rradius 110.884
rwrist -1.74398
rhand -32.4423 35.2714
rfingers 7.12502
rthumb -5.67582 5.36741
lclavicle 6.59965e-014 2.10712e-014
lhumerus 44.6347 21.778 -6.72581
lradius 74.443
lwrist 4.50439
lhand -63.4434 -63.5386
lfingers 7.12502
lthumb -35.4234 -37.0825
rfemur -29.8357 -13.4345 24.5897
rtibia 43.751
rfoot -17.5412 -14.0009
rtoes -1.44261
lfemur -13.6797 8.09588 -20.1894
ltibia 50.5029
lfoot -17.2288 14.4883
ltoes 7.85964
2706
root -9.50417 15.1482 7.42555 181.007 58.7162 -182.739
lowerback -0.203101 4.88939 -1.07183
upperback -7.25841 6.91751 0.967335
thorax -7.7265 3.65836 1.12593
lowerneck -17.7322 -2.59087 -0.743573
upperneck 27.8429 -1.83434 -2.95829
head 12.0889 -0.986984 -1.20411
rclavicle -5.40694e-014 -1.39149e-014
rhumerus 15.8472 66.8557 -21.1046
rradius 110.761
rwrist -1.9112
rhand -32.4136 35.5845
rfingers 7.12502
rthumb -5.64807 5.67982
lclavicle -5.40694e-014 -1.39149e-014
lhumerus 44.2586 21.3772 -6.78455
lradius 75.1397
lwrist 5.62193
lhand -63.5421 -60.3736
lfingers 7.12502
lthumb -35.517 -33.9399
rfemur -30.0104 -13.7984 25.098
rtibia 43.9035
rfoot -17.8786 -14.9134
rtoes 0.300506
lfemur -13.8207 9.46565 -20.1204
ltibia 51.3725
lfoot -17.404 13.2799
ltoes 5.5796
2707
root -9.5088 15.1212 7.48955 181.584 57.0369 -182.08
lowerback -0.0554962 4.83042 -1.01152
upperback -7.23169 6.84733 1.04522
thorax -7.7832 3.62272 1.1659
lowerneck -17.709 -2.76701 -0.840495
upperneck 27.5145 -2.11541 -2.85729
head 11.9533 -1.11702 -1.18826
rclavicle 4.54223e-014 1.78906e-014
rhumerus 13.7571 66.4245 -22.7276
rradius 110.653
rwrist -2.21823
rhand -32.3021 35.7957
rfingers 7.12502
rthumb -5.5404 5.88813
lclavicle 4.54223e-014 1.78906e-014
lhumerus 43.8206 20.9309 -6.8278
lradius 75.9451
lwrist 6.83191
lhand -63.6203 -56.6777
lfingers 7.12502
lthumb -35.5911 -30.2618
rfemur -30.2894 -14.1531 25.5773
rtibia 44.2148
rfoot -18.1806 -15.7246
rtoes 1.97853
lfemur -13.8828 10.7241 -20.0877
ltibia 52.104
lfoot -17.4913 11.9443
ltoes 3.0193
2708
root -9.51567 15.0902 7.55171 182.036 55.4642 -181.54
lowerback 0.0849096 4.80022 -0.963409
upperback -7.17849 6.81306 1.12593
thorax -7.8103 3.60472 1.21537
lowerneck -17.6723 -2.94751 -0.945761
upperneck 27.1427 -2.39568 -2.77924
head 11.7998 -1.25211 -1.17848
rclavicle -2.12302e-013 -6.08281e-014
rhumerus 11.7167 65.9305 -24.3179
rradius 110.566
rwrist -2.63543
rhand -32.1221 35.9232
rfingers 7.12502
rthumb -5.36659 6.01116
lclavicle -2.12302e-013 -6.08281e-014
lhumerus 43.3107 20.4452 -6.85583
lradius 76.8777
lwrist 8.14225
lhand -63.6789 -52.5473
lfingers 7.12502
lthumb -35.6467 -26.1448
rfemur -30.6691 -14.5293 26.0187
rtibia 44.6761
rfoot -18.4325 -16.4882
rtoes 3.38268
lfemur -13.8483 11.8851 -20.1102
ltibia 52.62
lfoot -17.5731 10.641
ltoes 0.470997
2709
root -9.5241 15.0561 7.612 182.361 53.9862 -181.133
lowerback 0.229648 4.78122 -0.922128
upperback -7.10502 6.78991 1.19104
thorax -7.81709 3.59094 1.25253
lowerneck -17.6648 -3.12034 -1.0651
upperneck 26.7629 -2.66163 -2.69918
head 11.6513 -1.38334 -1.16372
rclavicle 6.7885e-014 2.5842e-014
rhumerus 9.80468 65.3761 -25.8552
rradius 110.489
rwrist -3.10867
rhand -31.9085 36.0079
rfingers 7.12502
rthumb -5.16041 6.09076
lclavicle 6.7885e-014 2.5842e-014
lhumerus 42.7049 19.917 -6.91534
lradius 77.9387
lwrist 9.52612
lhand -63.7049 -48.1526
lfingers 7.12502
lthumb -35.6713 -21.756
rfemur -31.1372 -14.9377 26.4055
rtibia 45.267
rfoot -18.6603 -17.2154
rtoes 4.58446
lfemur -13.703 12.9601 -20.2034
ltibia 52.8584
lfoot -17.7477 9.56218
ltoes -1.71447
2710
root -9.53356 15.0197 7.67046 182.561 52.588 -180.875
lowerback 0.369056 4.76787 -0.908635
upperback -7.0209 6.76962 1.23022
thorax -7.80928 3.57864 1.27896
lowerneck -17.675 -3.28481 -1.19748
upperneck 26.3789 -2.91513 -2.60613
head 11.5072 -1.50947 -1.14032
rclavicle 1.85764e-013 4.17448e-014
rhumerus 8.02378 64.7661 -27.3427
rradius 110.416
rwrist -3.56755
rhand -31.7049 36.1008
rfingers 7.12502
rthumb -4.96376 6.17893
lclavicle 1.85764e-013 4.17448e-014
lhumerus 42.0265 19.3346 -6.99014
lradius 79.1068
lwrist 10.9285
lhand -63.7061 -43.7159
lfingers 7.12502
lthumb -35.6724 -17.3196
rfemur -31.6876 -15.382 26.7188
rtibia 45.9669
rfoot -18.8784 -17.8986
rtoes 5.55921
lfemur -13.4546 13.9403 -20.3868
ltibia 52.7754
lfoot -18.0966 8.88789
ltoes -3.41795
